<svg width="72" height="55" viewBox="0 0 72 55" fill="none" xmlns="http://www.w3.org/2000/svg">
<path fill-rule="evenodd" clip-rule="evenodd" d="M28.7593 6.02745L28.5272 5.47302L28.1404 5.73949L28.3725 6.29822C28.2306 6.39277 28.0845 6.49162 27.9341 6.58618L27.702 6.03175L27.2206 6.3326L27.4484 6.87843C27.3023 6.96439 27.1476 7.04605 26.9928 7.13201L26.7694 6.59907L26.2751 6.86554L26.4943 7.38988C26.3439 7.46724 26.1848 7.5403 26.0301 7.61337L25.8152 7.09333L25.3038 7.32111L25.5187 7.84116C25.48 7.85835 25.437 7.87554 25.3983 7.89273C25.278 7.94431 25.1619 7.99158 25.0416 8.03886L24.8224 7.51452L24.2981 7.70362L24.5216 8.23656C24.3582 8.29673 24.1949 8.3526 24.0316 8.40418L23.8081 7.86694L23.2709 8.03026L23.4987 8.5718C23.331 8.62337 23.1634 8.66635 22.9958 8.70933L22.7723 8.1678L22.2265 8.30963L22.4457 8.83826C22.2695 8.87695 22.0976 8.91133 21.9299 8.94141L21.7193 8.43856L21.1692 8.5718L21.3583 9.02737C21.1735 9.04886 20.993 9.06605 20.8211 9.07895L20.6578 8.68784L20.1162 8.85975L20.2151 9.10044C19.7294 9.09614 19.3082 9.03167 18.973 8.91992C18.5475 8.95861 17.8942 9.03597 17.6321 9.1649C17.198 9.3798 15.9731 10.2824 15.9731 10.2824L16.4501 11.0603C10.7984 15.6676 6.12663 21.3021 3.28573 27.6845C0.0795161 34.8963 -0.582357 46.7155 2.70982 54.125C2.70982 54.125 3.38029 41.515 9.56494 34.1442C15.7496 26.7733 21.1176 24.8651 24.9385 23.4081C24.9385 23.4081 25.8883 24.835 27.2077 24.4697C28.5272 24.1043 28.3209 22.8322 28.3209 22.8322C28.1533 21.3021 28.2994 19.8709 28.5315 18.7148C28.8753 16.9956 28.9613 16.1747 30.2936 15.1604C33.0743 13.0502 34.8752 14.4642 36.0055 15.1261C36.5642 15.4527 36.8866 15.6504 37.398 15.212C41.279 11.8597 43.213 12.9255 44.872 13.8582C45.2932 14.0946 45.637 14.3739 46.1098 14.4169C46.6084 14.4642 48.3619 12.8697 50.1799 12.5087C51.9979 12.1433 54.8087 14.288 54.8087 14.288C54.9506 14.6017 55.1225 14.9112 55.3116 15.212C57.4949 18.6073 62.0163 19.5873 65.4073 17.4039C67.3456 16.1576 68.4975 14.1461 68.721 12.0187C68.721 12.0187 70.9258 10.523 70.9988 10.0417C71.0676 9.56461 68.0806 7.31252 67.2339 6.77958C66.5978 5.95439 65.807 5.29681 64.9345 4.82834C64.9345 4.82834 63.9159 3.25532 63.4647 3.05762C63.0134 2.85991 61.9002 3.35847 61.6123 3.03183C61.6123 3.03183 61.9561 2.34847 61.5048 1.81553C61.5048 1.81553 61.1438 1.28689 60.2799 1.15366C60.0521 1.11927 59.5536 1.17085 59.1797 1.51468C58.9777 1.69949 58.8745 1.90149 58.5221 1.89289C58.2255 1.88429 58.131 1.73817 58.0063 1.57485C57.6367 1.09778 57.2757 1.11068 56.8674 1.53187C56.717 1.68659 56.6009 1.82412 56.3044 1.81553C56.0078 1.80693 55.9133 1.66081 55.7886 1.49749C55.419 1.02042 55.058 1.03331 54.6497 1.45451C54.4993 1.60923 54.3531 1.74676 54.0609 1.73817C53.7643 1.72957 53.6698 1.58344 53.5451 1.42012C53.1755 0.943059 52.8145 0.955953 52.4062 1.37714C52.2558 1.53187 52.1397 1.6694 51.8432 1.66081C51.5466 1.65221 51.4521 1.50608 51.3274 1.34276C50.9578 0.865697 50.5968 0.878591 50.1885 1.29978C50.0381 1.45451 49.9177 1.59204 49.6255 1.58344C49.0668 1.56625 49.1613 1.03761 48.4736 0.869995C48.4736 0.869995 38.2404 1.70378 31.5099 3.77106C31.1618 3.87851 29.8037 4.40715 29.6231 4.60485C29.5673 4.66502 29.8896 5.03894 29.8251 5.10341C29.7435 5.18507 29.6575 5.27102 29.563 5.35268L29.3567 4.85413L28.9527 5.15068L29.1762 5.68792C29.0429 5.79537 28.9011 5.90711 28.755 6.01456L28.7593 6.02745ZM64.6079 16.1275C67.3027 14.3954 68.0806 10.8024 66.3485 8.10763C64.6165 5.41285 61.0235 4.63494 58.3287 6.36698C55.6339 8.09903 54.856 11.6921 56.588 14.3868C58.3201 17.0816 61.9131 17.8595 64.6079 16.1275Z" fill="#fff" stroke="#2B2A29" stroke-width="0.01"/>
</svg>
